<?xml version="1.0" standalone="no"?>
<!DOCTYPE svg PUBLIC "-//W3C//DTD SVG 1.1//EN" "http://www.w3.org/Graphics/SVG/1.1/DTD/svg11.dtd" >
<svg xmlns="http://www.w3.org/2000/svg" xmlns:xlink="http://www.w3.org/1999/xlink" version="1.1">
<metadata></metadata>
<defs>
<font id="bisonbold" horiz-adv-x="854" >
<font-face units-per-em="2048" ascent="1638" descent="-410" />
<missing-glyph horiz-adv-x="317" />
<glyph horiz-adv-x="0" />
<glyph unicode="&#xd;" horiz-adv-x="317" />
<glyph unicode=" "  horiz-adv-x="317" />
<glyph unicode="&#x09;" horiz-adv-x="317" />
<glyph unicode="&#xa0;" horiz-adv-x="317" />
<glyph unicode="!" horiz-adv-x="393" d="M82 115q0 -47 34 -81t81 -34t80.5 34t33.5 81t-33.5 80.5t-80.5 33.5t-81 -33.5t-34 -80.5zM84 715l29 -385h166l30 385v719h-225v-719z" />
<glyph unicode="&#x22;" horiz-adv-x="673" d="M82 1434l49 -404h127l49 404h-225zM367 1434l49 -404h127l49 404h-225z" />
<glyph unicode="#" horiz-adv-x="942" d="M82 410l16 159h101l39 375h-103l17 160h102l35 330h184l-35 -330h133l35 330h185l-35 -330h104l-16 -160h-105l-39 -375h105l-17 -159h-104l-43 -410h-184l43 410h-133l-43 -410h-185l43 410h-100zM383 569h133l39 375h-133z" />
<glyph unicode="$" horiz-adv-x="819" d="M70 352v170h225v-170q0 -74 31 -102q27 -25 84 -25q59 0 84 25q31 27 30 102v74q0 94 -75 164q-16 14 -87 53q-96 51 -141 90q-74 66 -112.5 150t-38.5 180v18q0 170 102 269q51 47 125 69v74h225v-74q76 -23 125 -69q102 -98 103 -269v-108h-226v108q0 76 -30 103 q-25 25 -84 24q-57 0 -84 -24q-31 -29 -31 -103v-18q0 -94 76 -162q20 -16 80 -49q106 -57 147 -94q152 -135 152 -332v-74q0 -170 -103 -268q-49 -47 -125 -70v-73h-225v73q-74 23 -125 70q-102 98 -102 268z" />
<glyph unicode="%" horiz-adv-x="1222" d="M70 1157q0 -100 61 -172q33 -37 76 -57.5t90 -20.5t91 20.5t77 57.5q61 74 61 172v19q0 98 -61 172q-33 37 -77 58t-91 21t-90 -21.5t-76 -57.5q-61 -70 -61 -172v-19zM272 1157v19q0 20 8.5 34.5t16.5 14.5t17.5 -14.5t9.5 -34.5v-19q0 -20 -9.5 -33.5t-17.5 -13.5 t-16.5 13.5t-8.5 33.5zM285 0l442 1434h211l-442 -1434h-211zM696 266q0 -100 62 -172q33 -37 77 -57.5t91 -20.5t90 20.5t76 57.5q61 72 61 172v21q0 102 -61 170q-33 39 -76 59.5t-90 20.5t-91 -20.5t-77 -59.5q-61 -68 -62 -170v-21zM899 266v21q0 20 9.5 33.5t17.5 13.5 t16 -13.5t8 -33.5v-21q0 -20 -8 -33.5t-16 -13.5t-17.5 13.5t-9.5 33.5z" />
<glyph unicode="&#x26;" horiz-adv-x="1214" d="M82 434q0 -121 41 -206t100 -136q127 -111 322 -110q88 0 171 36.5t148 106.5l15 16q25 -74 24 -141h230q0 166 -103 358q51 80 100 166l-196 115l-45 -76q-74 88 -150 148l-41 30q18 12 35 29q76 63 115 148.5t39 181.5v35q0 88 -39 156.5t-111 109.5q-86 49 -192 49 t-193 -49q-72 -41 -110.5 -109.5t-38.5 -156.5v-35q0 -164 110 -309l-8 -5q-125 -86 -174 -177t-49 -175zM309 434q0 76 123 162l45 29l80 -62l41 -33q86 -70 162 -170q-39 -55 -62 -77q-70 -74 -153 -74q-111 0 -172 55q-63 55 -64 170zM432 1100v35q0 27 9.5 42t25.5 25 q33 20 78 21q45 -1 78 -21q18 -10 27 -25.5t9 -41.5v-35q0 -88 -71 -156q-29 -27 -70 -47q-86 100 -86 203z" />
<glyph unicode="'" horiz-adv-x="389" d="M82 1434l49 -404h127l49 404h-225z" />
<glyph unicode="(" horiz-adv-x="485" d="M84 336q0 -170 102 -268q90 -84 238 -84v225q-57 0 -84 24q-31 29 -31 103v764q0 74 31 102q27 25 84 25v225q-147 0 -238 -84q-102 -98 -102 -268v-764z" />
<glyph unicode=")" horiz-adv-x="485" d="M61 -16q148 0 238 84q102 98 102 268v764q0 170 -102 268q-90 84 -238 84v-225q57 0 84 -25q31 -29 31 -102v-764q0 -74 -31 -103q-27 -25 -84 -24v-225z" />
<glyph unicode="*" horiz-adv-x="749" d="M72 1004v225l194 -37l-94 172l213 70l25 -195l135 143l133 -182l-178 -84l178 -84l-133 -182l-135 143l-25 -196l-213 69l94 174z" />
<glyph unicode="+" horiz-adv-x="796" d="M72 621v227h213v215h227v-215h213v-227h-213v-213h-227v213h-213z" />
<glyph unicode="," horiz-adv-x="372" d="M72 115q0 47 33.5 80.5t80.5 33.5t81 -33.5t34 -80.5q0 -45 -33 -107q-23 -43 -62.5 -103.5t-53.5 -78.5h-66q4 12 17.5 48t29.5 75q6 12 6 31q0 20 -16 36q-51 41 -51 99z" />
<glyph unicode="-" horiz-adv-x="409" d="M20 623v225h369v-225h-369z" />
<glyph unicode="." horiz-adv-x="372" d="M72 109q0 -47 33.5 -81t80.5 -34t81 33.5t34 81.5q0 47 -34 80.5t-81 33.5t-80.5 -33.5t-33.5 -80.5z" />
<glyph unicode="/" horiz-adv-x="780" d="M10 0l565 1434h195l-565 -1434h-195z" />
<glyph unicode="0" horiz-adv-x="806" d="M63 336q0 -170 103 -268q90 -84 237 -84q148 0 238 84q102 98 102 268v762q0 170 -102 268q-90 84 -238 84q-147 0 -237 -84q-102 -98 -103 -268v-762zM289 336v762q0 74 30 102q27 25 84 25q59 0 84 -25q31 -27 31 -102v-762q0 -76 -31 -103q-25 -25 -84 -24 q-57 0 -84 24q-31 29 -30 103z" />
<glyph unicode="1" horiz-adv-x="598" d="M61 831v306l326 297h129v-1434h-225v1040z" />
<glyph unicode="2" horiz-adv-x="813" d="M68 0h682v225h-457v176q0 94 72 160q23 20 48 34.5t50 27.5q39 18 68.5 36.5t64.5 49.5q74 66 113 149.5t39 177.5v62q0 174 -103 268q-90 84 -237 84t-238 -84q-102 -94 -102 -268v-125h225v125q0 74 31 102q27 25 84 25q59 0 84 -25q31 -27 30 -102v-62q0 -88 -69 -155 q-20 -16 -88 -54q-12 -6 -62.5 -35.5t-83.5 -58.5q-152 -135 -151 -332v-401z" />
<glyph unicode="3" horiz-adv-x="788" d="M55 334v96h226v-96q0 -74 30 -103q27 -25 84 -24q59 0 84 24q31 27 31 103v92q0 94 -76 164q-25 23 -49.5 36t-30.5 15l-73 29v153l73 27q49 25 84 57q72 66 72 160v29q0 76 -31 102q-25 25 -84 25q-57 0 -84 -25q-31 -29 -30 -102v-37h-226v37q0 170 103 268 q90 84 237 84t238 -84q102 -98 102 -268v-29q0 -189 -139 -322q139 -129 139 -319v-92q0 -170 -102 -268q-90 -84 -238 -84q-147 0 -237 84q-102 98 -103 268z" />
<glyph unicode="4" horiz-adv-x="884" d="M41 221v127l500 1086h223v-988h59v-225h-59v-221h-225v221h-498zM334 446h205v515z" />
<glyph unicode="5" horiz-adv-x="794" d="M61 334q0 -170 103 -268q90 -84 237 -84q148 0 238 84q102 98 102 268v121q0 195 -151 329q-43 39 -85 61.5t-63 28.5q-2 2 -25.5 14.5t-54.5 39.5q-76 68 -75 164v116h456v226h-682v-342q0 -96 39 -181.5t113 -150.5q45 -41 89 -65.5t58 -28.5h2q6 -2 30 -15.5t48 -36.5 q76 -63 76 -159v-121q0 -76 -31 -103q-25 -25 -84 -24q-57 0 -84 24q-31 29 -30 103v127h-226v-127z" />
<glyph unicode="6" horiz-adv-x="796" d="M63 336v170v592q0 170 103 268q90 84 237 84t238 -84q102 -98 102 -268v-111h-225v111q0 76 -31 102q-25 25 -84 25q-57 0 -84 -25q-31 -29 -30 -102v-254q49 14 114 14q147 0 238 -84q102 -94 102 -268v-170q0 -170 -102 -268q-90 -84 -238 -84q-147 0 -237 84 q-102 98 -103 268zM289 336q0 -74 30 -103q27 -25 84 -24q59 0 84 24q31 27 31 103v170q0 76 -31 102q-25 25 -84 25q-57 0 -84 -25q-30 -28 -30 -102v-170z" />
<glyph unicode="7" horiz-adv-x="731" d="M31 1208v226h680l-336 -1434h-232l283 1208h-395z" />
<glyph unicode="8" horiz-adv-x="786" d="M53 336q0 -170 103 -268q90 -84 237 -84q148 0 238 84q102 98 102 268v88q0 92 -35.5 175t-105.5 146q141 135 141 324v29q0 170 -102 268q-90 84 -238 84q-147 0 -237 -84q-102 -98 -103 -268v-37q0 -184 135 -316q-135 -129 -135 -313v-96zM279 336v96q0 92 69 156 q18 14 41 30q20 -11 47 -34q72 -66 72 -160v-88q0 -74 -31 -103q-27 -25 -84 -24q-57 0 -84 24q-31 29 -30 103zM279 1061v37q0 74 30 102q27 25 84 25t84 -25q31 -29 31 -102v-29q0 -94 -72 -160q-20 -18 -47 -37q-23 14 -41 31q-70 68 -69 158z" />
<glyph unicode="9" horiz-adv-x="796" d="M53 334v112h226v-112q0 -74 30 -103q27 -25 84 -24q59 0 84 24q31 27 31 103v254q-49 -14 -115 -15q-147 0 -237 84q-102 94 -103 269v170q0 170 103 268q90 84 237 84t238 -84q102 -98 102 -268v-170v-592q0 -170 -102 -268q-90 -84 -238 -84q-147 0 -237 84 q-102 98 -103 268zM279 926q0 -74 30 -103q27 -25 84 -24q59 0 84 24q31 27 31 103v170q0 76 -31 102q-25 25 -84 25q-57 0 -84 -25q-31 -29 -30 -102v-170z" />
<glyph unicode=":" horiz-adv-x="372" d="M72 109q0 -47 33.5 -81t80.5 -34t81 33.5t34 81.5q0 47 -34 80.5t-81 33.5t-80.5 -33.5t-33.5 -80.5zM72 889q0 -47 33.5 -81t80.5 -34t81 34t34 81t-34 81t-81 34t-80.5 -34t-33.5 -81z" />
<glyph unicode=";" horiz-adv-x="372" d="M72 109q0 47 33.5 80.5t80.5 33.5t81 -33.5t34 -80.5q0 -45 -33 -107q-23 -43 -62.5 -103.5t-53.5 -78.5h-66q4 12 17.5 48t29.5 75q6 12 6 30q0 20 -16 37q-51 41 -51 99zM72 889q0 -47 33.5 -81t80.5 -34t81 34t34 81t-34 81t-81 34t-80.5 -34t-33.5 -81z" />
<glyph unicode="&#x3c;" horiz-adv-x="739" d="M61 621l596 -269v250l-297 131l297 133v250l-596 -268v-227z" />
<glyph unicode="=" horiz-adv-x="798" d="M72 453h655v229h-655v-229zM72 793h655v227h-655v-227z" />
<glyph unicode="&#x3e;" horiz-adv-x="739" d="M82 352l596 269v227l-596 268v-250l297 -133l-297 -131v-250z" />
<glyph unicode="?" horiz-adv-x="802" d="M61 975v125q0 170 103 268q90 84 237 84t238 -84q102 -98 102 -268v-56q0 -215 -131 -329q-88 -78 -124.5 -116t-57 -83t-20.5 -108v-70h-226v70q0 102 30 185t101 146q88 78 125 116t57.5 83t20.5 106v56q0 74 -31 102q-27 25 -84 25q-59 0 -84 -25q-31 -27 -30 -102 v-125h-226zM180 115q0 -47 34 -81t81 -34t81 34t34 81t-34 80.5t-81 33.5t-81 -33.5t-34 -80.5z" />
<glyph unicode="@" horiz-adv-x="1228" d="M61 547v327q0 158 49.5 264.5t122.5 170.5q147 131 381 131q115 0 212.5 -34t168.5 -97q74 -63 123 -170t49 -265v-172q0 -158 -63 -241q-33 -45 -80 -69.5t-104 -24.5q-82 0 -144 49q-63 -49 -162 -49q-115 0 -184 69q-78 74 -78 211v127q0 137 78 211q68 70 184 70 q39 0 56 -4v12h207v-361q0 -90 24 -120q6 -8 19 -9q10 0 18 9q23 37 23 120v172q0 190 -103 281q-88 78 -244 78t-243 -78q-102 -90 -103 -281v-327q0 -190 103 -279q90 -80 243 -80q113 0 193 43l20 13q40 -11 99 -11q111 0 190 43q-63 -139 -194 -216.5t-308 -77.5 q-233 0 -381 131q-74 63 -123 169.5t-49 264.5zM559 647q0 -49 14 -63q12 -10 41 -11q29 0 41 11q15 14 15 63v127q0 49 -15 64q-10 10 -41 10t-41 -10q-14 -14 -14 -64v-127z" />
<glyph unicode="A" d="M27 0l286 1434h226l286 -1434h-229l-41 227h-258l-41 -227h-229zM336 453h180l-90 514z" />
<glyph unicode="B" horiz-adv-x="815" d="M82 0h340q147 0 235 80q53 47 78 115q27 61 27 149v131q0 178 -113 258q82 76 82 221v133q0 86 -26 152q-25 68 -78 115q-90 80 -236 80h-309v-1434zM307 225v377h115q57 0 84 -24q31 -29 31 -103v-131q0 -70 -29 -96q-25 -23 -86 -23h-115zM307 827v381h84q61 0 86 -22 q29 -29 29 -99v-133q0 -72 -31 -102q-27 -25 -84 -25h-84z" />
<glyph unicode="C" horiz-adv-x="798" d="M63 336q0 -166 103 -268q94 -84 237 -84q148 0 238 84q102 98 102 268v184h-225v-184q0 -76 -29 -103q-26 -24 -82 -24h-4q-57 0 -84 24q-31 29 -30 103v762q0 74 30 102q27 25 84 25q59 0 86 -25q29 -27 29 -102v-127h225v127q0 170 -102 268q-90 84 -238 84 q-143 0 -237 -84q-102 -102 -103 -268v-762z" />
<glyph unicode="D" horiz-adv-x="825" d="M82 0h340q147 0 235 80q51 45 80 115q25 66 25 149v737q0 172 -103 267q-92 86 -237 86h-340v-1434zM307 225v983h115q57 0 84 -24q31 -31 31 -103v-737q0 -72 -29 -96q-25 -23 -86 -23h-115z" />
<glyph unicode="E" horiz-adv-x="733" d="M82 0v1434h594v-226h-369v-360h254v-225h-254v-398h369v-225h-594z" />
<glyph unicode="F" horiz-adv-x="704" d="M82 0v1434h594v-226h-369v-360h256v-225h-256v-623h-225z" />
<glyph unicode="G" horiz-adv-x="808" d="M63 336q0 -166 103 -268q94 -84 237 -84q148 0 238 84q102 98 102 268v493h-337v-225h112v-268q0 -76 -29 -103q-26 -24 -82 -24h-4q-57 0 -84 24q-31 29 -30 103v762q0 74 30 102q27 25 84 25q59 0 86 -25q29 -27 29 -102v-127h225v127q0 170 -102 268q-90 84 -238 84 q-143 0 -237 -84q-102 -102 -103 -268v-762z" />
<glyph unicode="H" horiz-adv-x="843" d="M82 0v1434h225v-586h230v586h225v-1434h-225v623h-230v-623h-225z" />
<glyph unicode="I" horiz-adv-x="389" d="M82 0h225v1434h-225v-1434z" />
<glyph unicode="J" horiz-adv-x="782" d="M31 336q0 -170 102 -268q90 -84 238 -84q143 0 237 84q102 102 103 268v1098h-226v-1098q0 -74 -30 -103q-26 -24 -80 -24h-4q-59 0 -86 24q-29 27 -29 103v178h-225v-178z" />
<glyph unicode="K" horiz-adv-x="827" d="M82 0v1434h225v-582l250 582h244l-289 -680l289 -754h-242l-174 459l-78 -178v-281h-225z" />
<glyph unicode="L" horiz-adv-x="702" d="M82 0h594v225h-369v1209h-225v-1434z" />
<glyph unicode="M" horiz-adv-x="1110" d="M82 0v1434h129l344 -795l344 795h129v-1434h-225v715l-182 -490h-132l-182 490v-715h-225z" />
<glyph unicode="N" horiz-adv-x="847" d="M74 0v1434h131l344 -725v725h225v-1434h-131l-344 727v-727h-225z" />
<glyph unicode="O" horiz-adv-x="806" d="M63 336q0 -170 103 -268q90 -84 237 -84q148 0 238 84q102 98 102 268v762q0 170 -102 268q-90 84 -238 84q-147 0 -237 -84q-102 -98 -103 -268v-762zM289 336v762q0 74 30 102q27 25 84 25q59 0 84 -25q31 -27 31 -102v-762q0 -76 -31 -103q-24 -24 -80 -24h-4 q-57 0 -84 24q-31 29 -30 103z" />
<glyph unicode="P" horiz-adv-x="802" d="M82 0h225v573h115q147 0 237 84q102 94 103 269v155q0 172 -103 267q-92 86 -237 86h-340v-1434zM307 799v409h115q57 0 84 -24q31 -31 31 -103v-155q0 -74 -31 -103q-26 -24 -80 -24h-4h-115z" />
<glyph unicode="Q" horiz-adv-x="821" d="M63 336v762q0 174 103 268q90 84 237 84t238 -84q102 -94 102 -268v-762q0 -172 -102 -266l-8 -9q4 -59 29 -81q27 -25 83 -25h29v-225h-29q-143 0 -237 84q-70 66 -92 170h-13q-70 0 -131 22.5t-106 63.5q-102 94 -103 266zM289 336q0 -72 30 -103q27 -24 84 -24 q59 0 84 24q31 29 31 103v762q0 76 -31 102q-25 25 -84 25q-57 0 -84 -25q-31 -29 -30 -102v-762z" />
<glyph unicode="R" horiz-adv-x="813" d="M82 0v1434h340q145 0 237 -86q102 -94 103 -267v-153q0 -174 -103 -269q-14 -14 -32 -26l129 -633h-230l-116 575h-103v-575h-225zM307 801h115q57 0 84 24q31 29 31 103v153q0 72 -31 103q-26 24 -80 24h-4h-115v-407z" />
<glyph unicode="S" horiz-adv-x="778" d="M49 336q0 -170 103 -268q90 -84 237 -84q148 0 238 84q102 98 102 268v90q0 197 -151 332q-41 37 -148 94q-59 33 -80 49q-76 68 -76 162v35q0 74 31 102q27 25 84 25q59 0 84 -25q31 -27 31 -102v-125h225v125q0 170 -102 268q-90 84 -238 84q-147 0 -237 -84 q-102 -98 -103 -268v-35q0 -96 39 -180t113 -150q45 -39 141 -90q70 -39 86 -53q76 -70 76 -164v-90q0 -76 -31 -103q-24 -24 -80 -24h-4q-57 0 -84 24q-31 29 -31 103v186h-225v-186z" />
<glyph unicode="T" horiz-adv-x="722" d="M20 1208v226h685v-226h-230v-1208h-225v1208h-230z" />
<glyph unicode="U" horiz-adv-x="823" d="M72 336q0 -170 102 -268q90 -84 238 -84q143 0 237 84q102 102 103 268v1098h-226v-1098q0 -74 -30 -103q-26 -24 -80 -24h-4q-59 0 -86 24q-29 27 -29 103v1098h-225v-1098z" />
<glyph unicode="V" horiz-adv-x="843" d="M23 1434h229l170 -969l170 969h229l-286 -1434h-226z" />
<glyph unicode="W" horiz-adv-x="1062" d="M31 1434h227l78 -715l131 487h129l131 -487l78 715h227l-176 -1434h-125l-201 713l-198 -713h-125z" />
<glyph unicode="X" horiz-adv-x="858" d="M31 0l266 715l-266 719h239l158 -424l158 424h241l-268 -719l268 -715h-239l-160 424l-158 -424h-239z" />
<glyph unicode="Y" horiz-adv-x="802" d="M10 1434h238l151 -514l156 514h238l-279 -930v-504h-227v504z" />
<glyph unicode="Z" horiz-adv-x="784" d="M51 0h682v227h-373l373 1207h-682v-228h373z" />
<glyph unicode="[" horiz-adv-x="483" d="M82 0h340v225h-115v983h115v226h-340v-1434z" />
<glyph unicode="\" horiz-adv-x="780" d="M10 1434h195l565 -1434h-195z" />
<glyph unicode="]" horiz-adv-x="483" d="M61 0h340v1434h-340v-226h115v-983h-115v-225z" />
<glyph unicode="^" horiz-adv-x="841" d="M41 834l268 600h226l266 -600h-228l-151 340l-152 -340h-229z" />
<glyph unicode="_" horiz-adv-x="1064" d="M20 0v225h1024v-225h-1024z" />
<glyph unicode="`" horiz-adv-x="378" d="M20 1735l226 -226h112l-112 226h-226z" />
<glyph unicode="a" d="M27 0l286 1434h226l286 -1434h-229l-41 227h-258l-41 -227h-229zM336 453h180l-90 514z" />
<glyph unicode="b" horiz-adv-x="815" d="M82 0h340q147 0 235 80q53 47 78 115q27 61 27 149v131q0 178 -113 258q82 76 82 221v133q0 86 -26 152q-25 68 -78 115q-90 80 -236 80h-309v-1434zM307 225v377h115q57 0 84 -24q31 -29 31 -103v-131q0 -70 -29 -96q-25 -23 -86 -23h-115zM307 827v381h84q61 0 86 -22 q29 -29 29 -99v-133q0 -72 -31 -102q-27 -25 -84 -25h-84z" />
<glyph unicode="c" horiz-adv-x="798" d="M63 336q0 -166 103 -268q94 -84 237 -84q148 0 238 84q102 98 102 268v184h-225v-184q0 -76 -29 -103q-26 -24 -82 -24h-4q-57 0 -84 24q-31 29 -30 103v762q0 74 30 102q27 25 84 25q59 0 86 -25q29 -27 29 -102v-127h225v127q0 170 -102 268q-90 84 -238 84 q-143 0 -237 -84q-102 -102 -103 -268v-762z" />
<glyph unicode="d" horiz-adv-x="825" d="M82 0h340q147 0 235 80q51 45 80 115q25 66 25 149v737q0 172 -103 267q-92 86 -237 86h-340v-1434zM307 225v983h115q57 0 84 -24q31 -31 31 -103v-737q0 -72 -29 -96q-25 -23 -86 -23h-115z" />
<glyph unicode="e" horiz-adv-x="733" d="M82 0v1434h594v-226h-369v-360h254v-225h-254v-398h369v-225h-594z" />
<glyph unicode="f" horiz-adv-x="704" d="M82 0v1434h594v-226h-369v-360h256v-225h-256v-623h-225z" />
<glyph unicode="g" horiz-adv-x="808" d="M63 336q0 -166 103 -268q94 -84 237 -84q148 0 238 84q102 98 102 268v493h-337v-225h112v-268q0 -76 -29 -103q-26 -24 -82 -24h-4q-57 0 -84 24q-31 29 -30 103v762q0 74 30 102q27 25 84 25q59 0 86 -25q29 -27 29 -102v-127h225v127q0 170 -102 268q-90 84 -238 84 q-143 0 -237 -84q-102 -102 -103 -268v-762z" />
<glyph unicode="h" horiz-adv-x="843" d="M82 0v1434h225v-586h230v586h225v-1434h-225v623h-230v-623h-225z" />
<glyph unicode="i" horiz-adv-x="389" d="M82 0h225v1434h-225v-1434z" />
<glyph unicode="j" horiz-adv-x="782" d="M31 336q0 -170 102 -268q90 -84 238 -84q143 0 237 84q102 102 103 268v1098h-226v-1098q0 -74 -30 -103q-26 -24 -80 -24h-4q-59 0 -86 24q-29 27 -29 103v178h-225v-178z" />
<glyph unicode="k" horiz-adv-x="827" d="M82 0v1434h225v-582l250 582h244l-289 -680l289 -754h-242l-174 459l-78 -178v-281h-225z" />
<glyph unicode="l" horiz-adv-x="702" d="M82 0h594v225h-369v1209h-225v-1434z" />
<glyph unicode="m" horiz-adv-x="1110" d="M82 0v1434h129l344 -795l344 795h129v-1434h-225v715l-182 -490h-132l-182 490v-715h-225z" />
<glyph unicode="n" horiz-adv-x="847" d="M74 0v1434h131l344 -725v725h225v-1434h-131l-344 727v-727h-225z" />
<glyph unicode="o" horiz-adv-x="806" d="M63 336q0 -170 103 -268q90 -84 237 -84q148 0 238 84q102 98 102 268v762q0 170 -102 268q-90 84 -238 84q-147 0 -237 -84q-102 -98 -103 -268v-762zM289 336v762q0 74 30 102q27 25 84 25q59 0 84 -25q31 -27 31 -102v-762q0 -76 -31 -103q-24 -24 -80 -24h-4 q-57 0 -84 24q-31 29 -30 103z" />
<glyph unicode="p" horiz-adv-x="802" d="M82 0h225v573h115q147 0 237 84q102 94 103 269v155q0 172 -103 267q-92 86 -237 86h-340v-1434zM307 799v409h115q57 0 84 -24q31 -31 31 -103v-155q0 -74 -31 -103q-26 -24 -80 -24h-4h-115z" />
<glyph unicode="q" horiz-adv-x="821" d="M63 336v762q0 174 103 268q90 84 237 84t238 -84q102 -94 102 -268v-762q0 -172 -102 -266l-8 -9q4 -59 29 -81q27 -25 83 -25h29v-225h-29q-143 0 -237 84q-70 66 -92 170h-13q-70 0 -131 22.5t-106 63.5q-102 94 -103 266zM289 336q0 -72 30 -103q27 -24 84 -24 q59 0 84 24q31 29 31 103v762q0 76 -31 102q-25 25 -84 25q-57 0 -84 -25q-31 -29 -30 -102v-762z" />
<glyph unicode="r" horiz-adv-x="813" d="M82 0v1434h340q145 0 237 -86q102 -94 103 -267v-153q0 -174 -103 -269q-14 -14 -32 -26l129 -633h-230l-116 575h-103v-575h-225zM307 801h115q57 0 84 24q31 29 31 103v153q0 72 -31 103q-26 24 -80 24h-4h-115v-407z" />
<glyph unicode="s" horiz-adv-x="778" d="M49 336q0 -170 103 -268q90 -84 237 -84q148 0 238 84q102 98 102 268v90q0 197 -151 332q-41 37 -148 94q-59 33 -80 49q-76 68 -76 162v35q0 74 31 102q27 25 84 25q59 0 84 -25q31 -27 31 -102v-125h225v125q0 170 -102 268q-90 84 -238 84q-147 0 -237 -84 q-102 -98 -103 -268v-35q0 -96 39 -180t113 -150q45 -39 141 -90q70 -39 86 -53q76 -70 76 -164v-90q0 -76 -31 -103q-24 -24 -80 -24h-4q-57 0 -84 24q-31 29 -31 103v186h-225v-186z" />
<glyph unicode="t" horiz-adv-x="722" d="M20 1208v226h685v-226h-230v-1208h-225v1208h-230z" />
<glyph unicode="u" horiz-adv-x="823" d="M72 336q0 -170 102 -268q90 -84 238 -84q143 0 237 84q102 102 103 268v1098h-226v-1098q0 -74 -30 -103q-26 -24 -80 -24h-4q-59 0 -86 24q-29 27 -29 103v1098h-225v-1098z" />
<glyph unicode="v" horiz-adv-x="843" d="M23 1434h229l170 -969l170 969h229l-286 -1434h-226z" />
<glyph unicode="w" horiz-adv-x="1062" d="M31 1434h227l78 -715l131 487h129l131 -487l78 715h227l-176 -1434h-125l-201 713l-198 -713h-125z" />
<glyph unicode="x" horiz-adv-x="858" d="M31 0l266 715l-266 719h239l158 -424l158 424h241l-268 -719l268 -715h-239l-160 424l-158 -424h-239z" />
<glyph unicode="y" horiz-adv-x="802" d="M10 1434h238l151 -514l156 514h238l-279 -930v-504h-227v504z" />
<glyph unicode="z" horiz-adv-x="784" d="M51 0h682v227h-373l373 1207h-682v-228h373z" />
<glyph unicode="{" horiz-adv-x="643" d="M23 719l120 -90q98 -74 99 -183v-108q0 -170 102 -268q90 -84 238 -84v225q-57 0 -84 25q-31 29 -31 102v108q0 127 -64 230l-30 43l30 43q63 102 64 229v109q0 74 31 102q27 25 84 25v225q-147 0 -238 -84q-102 -98 -102 -268v-109q0 -109 -99 -182z" />
<glyph unicode="|" horiz-adv-x="1044" d="M410 -123h225v1679h-225v-1679z" />
<glyph unicode="}" horiz-adv-x="643" d="M61 -14q148 0 238 84q102 98 102 268v108q0 109 99 183l121 90l-121 90q-98 74 -99 182v109q0 170 -102 268q-90 84 -238 84v-225q57 0 84 -25q31 -29 31 -102v-109q0 -127 64 -229l30 -43l-30 -43q-63 -102 -64 -230v-108q0 -74 -31 -102q-27 -25 -84 -25v-225z" />
<glyph unicode="&#xa1;" horiz-adv-x="393" d="M82 1319q0 -47 34 -81t81 -34t80.5 34t33.5 81t-33.5 81t-80.5 34t-81 -34t-34 -81zM84 0h225v719l-30 385h-166l-29 -385v-719z" />
<glyph unicode="&#xa2;" horiz-adv-x="839" d="M84 352v729q0 170 102 269q57 51 125 67v76h226v-76q70 -18 125 -67q102 -98 102 -269v-110h-225v110q0 72 -31 103q-27 25 -84 24q-59 0 -84 -24q-31 -29 -31 -103v-729q0 -74 31 -102q25 -25 84 -25q57 0 84 25q31 31 31 102v168h225v-168q0 -170 -102 -268 q-55 -49 -125 -68v-75h-226v75q-68 16 -125 68q-102 98 -102 268z" />
<glyph unicode="&#xa3;" horiz-adv-x="913" d="M63 0h783v229h-371q31 78 31 181v163h225v228h-293q-47 78 -47 188v109q0 76 31 102q25 25 82 25t84 -25q31 -29 30 -102v-37h228v37q0 172 -103 270q-94 84 -239 84q-147 0 -238 -84q-104 -100 -104 -270v-109q0 -98 28 -188h-84v-228h170v-163q0 -102 -45 -146 q-33 -31 -92 -35h-76v-229z" />
<glyph unicode="&#xa4;" horiz-adv-x="862" d="M66 209l92 192q-66 88 -66 224v184q0 135 66 223l-90 193l202 96l80 -168q35 8 82 8q49 0 82 -8l80 168l203 -96l-90 -189q68 -96 67 -227v-184q1 -132 -67 -228l90 -188l-203 -96l-80 168q-35 -8 -82 -9q-49 0 -82 9l-80 -168zM317 625q0 -74 31 -103q27 -24 84 -24 q59 0 86 24q31 29 31 103v184q0 74 -31 102q-27 25 -86 25q-57 0 -84 -25q-31 -29 -31 -102v-184z" />
<glyph unicode="&#xa5;" horiz-adv-x="811" d="M14 1434h238l151 -514l156 514h238l-260 -873h163v-112h-182v-117h182v-113h-182v-219h-227v219h-185v113h185v117h-185v112h168z" />
<glyph unicode="&#xa6;" horiz-adv-x="1044" d="M410 -123v684h225v-684h-225zM410 909v647h225v-647h-225z" />
<glyph unicode="&#xa7;" horiz-adv-x="835" d="M72 657q0 61 27.5 121t80.5 111l21 16q-61 43 -92 93.5t-31 140.5q0 143 97 228t243 85q147 0 243.5 -86t96.5 -227v-54h-226v54q0 47 -33.5 67.5t-80.5 20.5q-51 0 -83 -22.5t-32 -65.5q0 -68 40 -98.5t126 -57.5q100 -33 149 -65q70 -45 107 -112t37 -140 q0 -63 -26.5 -124t-80.5 -110l-22 -18q63 -41 94 -90.5t31 -139.5q0 -143 -97.5 -228t-242.5 -85q-147 0 -243.5 86t-96.5 227v56h225v-56q0 -43 32 -65.5t83 -22.5t82.5 22.5t31.5 65.5q0 47 -20 75t-51 43t-90 36q-61 20 -101.5 36.5t-76.5 47.5q-121 102 -121 235z M303 662q0 -43 32 -66t83 -23q115 0 114 97q-2 39 -34.5 58.5t-79.5 19.5q-49 0 -82 -21.5t-33 -64.5z" />
<glyph unicode="&#xa8;" horiz-adv-x="552" d="M20 1608q0 -41 30 -71t71 -30t70.5 30t29.5 71q0 43 -29.5 72.5t-70.5 29.5t-71 -29.5t-30 -72.5zM332 1608q0 -41 29.5 -71t70.5 -30t70.5 30t29.5 71q0 43 -29.5 72.5t-70.5 29.5t-70.5 -29.5t-29.5 -72.5z" />
<glyph unicode="&#xa9;" horiz-adv-x="1507" d="M41 717q0 209 93 377t256 262t364 94t363.5 -94t255.5 -262t93 -377t-93 -377t-256 -262t-363 -94q-201 0 -364 94t-256 262t-93 377zM188 717q0 -168 74 -303t203 -211t289 -76t288.5 76t202.5 211t74 303t-74 303t-203 211t-288 76q-160 0 -289 -76t-203 -211t-74 -303 zM414 592q0 -162 92 -257t248 -95q157 0 248.5 96t91.5 256v41h-226v-41q0 -68 -25.5 -97.5t-88.5 -29.5t-89 30.5t-26 96.5v250q0 70 26.5 98.5t88.5 28.5q66 0 90 -29t24 -98v-41h226v41q0 162 -91.5 257t-248.5 95q-158 0 -249 -96.5t-91 -255.5v-250z" />
<glyph unicode="&#xab;" horiz-adv-x="774" d="M33 735l121 547h231l-123 -547l123 -547h-231zM389 735l121 547h231l-123 -547l123 -547h-231z" />
<glyph unicode="&#xad;" horiz-adv-x="409" d="M20 623v225h369v-225h-369z" />
<glyph unicode="&#xae;" horiz-adv-x="1507" d="M41 717q0 209 93 377t256 262t364 94t363.5 -94t255.5 -262t93 -377t-93 -377t-256 -262t-363 -94q-201 0 -364 94t-256 262t-93 377zM188 717q0 -168 74 -303t203 -211t289 -76t288.5 76t202.5 211t74 303t-74 303t-203 211t-288 76q-160 0 -289 -76t-203 -211t-74 -303 zM428 301v832h340q106 0 185 -40t121 -105.5t42 -141.5q0 -129 -110 -232q-14 -12 -35 -24l135 -289h-227l-97 229h-129v-229h-225zM653 756h115q57 0 89 22.5t32 52.5q0 31 -32 53.5t-89 22.5h-115v-151z" />
<glyph unicode="&#xaf;" horiz-adv-x="661" d="M20 1518h621v174h-621v-174z" />
<glyph unicode="&#xb4;" horiz-adv-x="378" d="M20 1509h113l225 226h-225z" />
<glyph unicode="&#xb6;" horiz-adv-x="841" d="M29 926v155q0 166 102 269q94 84 238 84h391v-1434h-225v1208h-41v-1208h-226l2 586q-82 18 -139 73q-102 98 -102 267z" />
<glyph unicode="&#xb7;" horiz-adv-x="393" d="M82 735q0 -47 34 -80.5t81 -33.5t80.5 33.5t33.5 80.5t-33.5 81t-80.5 34t-81 -34t-34 -81z" />
<glyph unicode="&#xb8;" horiz-adv-x="325" d="M20 -145q0 -57 42 -99.5t102 -42.5q59 0 100 41t41 101q0 49 -20.5 77.5t-53.5 51.5q-12 8 -12 16v2h-113v-2q0 -68 60 -109q18 -12 22.5 -18t4.5 -18t-8.5 -20.5t-20.5 -8.5t-21.5 8t-9.5 21h-113z" />
<glyph unicode="&#xbb;" horiz-adv-x="774" d="M33 188l123 547l-123 547h231l121 -547l-121 -547h-231zM389 188l123 547l-123 547h232l120 -547l-120 -547h-232z" />
<glyph unicode="&#xbf;" horiz-adv-x="804" d="M61 389q0 215 132 330q88 78 124.5 115.5t57 83t20.5 108.5v70h226v-70q0 -102 -30 -185t-102 -147q-88 -78 -124.5 -115.5t-57 -82.5t-20.5 -107l2 -55q0 -74 30 -103q27 -25 84 -24q59 0 84 24q31 27 31 103l-2 125h225l2 -125q0 -170 -102 -268q-90 -84 -238 -84 q-147 0 -237 84q-102 98 -103 268zM393 1319q0 -47 34 -82t81 -35q49 0 83 35t34 82t-34 81t-83 34q-47 0 -81 -34t-34 -81z" />
<glyph unicode="&#xc0;" d="M27 0l286 1434h226l286 -1434h-229l-41 227h-258l-41 -227h-229zM156 1735l225 -226h113l-113 226h-225zM336 453h180l-90 514z" />
<glyph unicode="&#xc1;" d="M27 0l286 1434h226l286 -1434h-229l-41 227h-258l-41 -227h-229zM336 453h180l-90 514zM379 1509h113l225 226h-225z" />
<glyph unicode="&#xc2;" d="M27 0l286 1434h226l286 -1434h-229l-41 227h-258l-41 -227h-229zM199 1509l114 226h226l112 -226h-112l-113 113l-113 -113h-114zM336 453h180l-90 514z" />
<glyph unicode="&#xc3;" d="M27 0l286 1434h226l286 -1434h-229l-41 227h-258l-41 -227h-229zM154 1573l90 -68q43 60 78 66q31 8 79 -23q63 -43 123 -43q53 0 95.5 32t78.5 83l-92 66q-41 -55 -71 -66q-29 -6 -72 22q-68 43 -127 44q-14 0 -39 -5q-74 -18 -143 -108zM336 453h180l-90 514z" />
<glyph unicode="&#xc4;" d="M27 0l286 1434h226l286 -1434h-229l-41 227h-258l-41 -227h-229zM170 1608q0 -41 29.5 -71t70.5 -30t71 30t30 71q0 43 -30 72.5t-71 29.5t-70.5 -29.5t-29.5 -72.5zM336 453h180l-90 514zM481 1608q0 -41 30 -71t71 -30t70.5 30t29.5 71q0 43 -29.5 72.5t-70.5 29.5 t-71 -29.5t-30 -72.5z" />
<glyph unicode="&#xc5;" d="M27 0l286 1434h226l286 -1434h-229l-41 227h-258l-41 -227h-229zM283 1657q0 -59 42 -100t101 -41t100 41.5t41 99.5q0 59 -41 101t-100 42t-101 -42t-42 -101zM336 453h180l-90 514zM395 1657q0 12 9.5 21.5t21.5 9.5t20.5 -9.5t8.5 -21.5t-8.5 -20.5t-20.5 -8.5 t-21.5 8.5t-9.5 20.5z" />
<glyph unicode="&#xc6;" horiz-adv-x="1177" d="M16 0l328 1434h776v-226h-368v-360h254v-225h-254v-398h368v-225h-594v225h-227l-51 -225h-232zM352 451h174v759z" />
<glyph unicode="&#xc7;" horiz-adv-x="798" d="M63 338v762q0 166 103 268q94 84 237 84q147 0 238 -84q102 -98 102 -268v-127h-225v127q0 76 -29 102q-27 25 -86 25q-57 0 -84 -25q-31 -29 -30 -102v-762q0 -74 30 -102q27 -25 84 -25q59 0 86 25q29 27 29 102v184h225v-184q0 -170 -102 -268q-70 -68 -184 -80v-2 q0 -8 10 -17q33 -23 53.5 -51.5t20.5 -77.5q0 -59 -41 -100t-101 -41q-57 0 -99 41t-42 100h113q0 -12 8 -20t20 -8t20.5 8t8.5 20t-5 18.5t-22 18.5q-57 41 -57 109v2q-104 14 -178 80q-102 102 -103 268z" />
<glyph unicode="&#xc8;" horiz-adv-x="733" d="M82 0v1434h594v-226h-369v-360h254v-225h-254v-398h369v-225h-594zM98 1735l226 -226h112l-112 226h-226z" />
<glyph unicode="&#xc9;" horiz-adv-x="733" d="M82 0v1434h594v-226h-369v-360h254v-225h-254v-398h369v-225h-594zM322 1509h112l225 226h-225z" />
<glyph unicode="&#xca;" horiz-adv-x="733" d="M82 0v1434h594v-226h-369v-360h254v-225h-254v-398h369v-225h-594zM164 1509l115 226h225l112 -226h-112l-113 113l-112 -113h-115z" />
<glyph unicode="&#xcb;" horiz-adv-x="733" d="M82 0v1434h594v-226h-369v-360h254v-225h-254v-398h369v-225h-594zM123 1608q0 -41 29.5 -71t70.5 -30t71 30t30 71q0 43 -30 72.5t-71 29.5t-70.5 -29.5t-29.5 -72.5zM434 1608q0 -41 30 -71t71 -30t70.5 30t29.5 71q0 43 -30 72.5t-70 29.5q-41 0 -71 -29.5t-30 -72.5z " />
<glyph unicode="&#xcc;" horiz-adv-x="389" d="M-86 1735l225 -226h113l-113 226h-225zM82 0h225v1434h-225v-1434z" />
<glyph unicode="&#xcd;" horiz-adv-x="389" d="M82 0h225v1434h-225v-1434zM137 1509h113l225 226h-225z" />
<glyph unicode="&#xce;" horiz-adv-x="387" d="M-33 1509l115 226h225l113 -226h-113l-112 113l-113 -113h-115zM82 0h225v1434h-225v-1434z" />
<glyph unicode="&#xcf;" horiz-adv-x="389" d="M-61 1608q0 -41 29.5 -71t70.5 -30t70.5 30t29.5 71q0 43 -29.5 72.5t-70.5 29.5t-70.5 -29.5t-29.5 -72.5zM82 0h225v1434h-225v-1434zM250 1608q0 -41 29.5 -71t70.5 -30t71 30t30 71q0 43 -30 72.5t-71 29.5t-70.5 -29.5t-29.5 -72.5z" />
<glyph unicode="&#xd0;" horiz-adv-x="849" d="M12 602v225h94v607h340q145 0 238 -86q102 -95 102 -267v-737q0 -84 -24 -149q-29 -70 -80 -115q-88 -80 -236 -80h-340v602h-94zM332 225h114q61 0 86 23q29 25 29 96v737q0 72 -31 103q-27 25 -84 24h-114v-381h96v-225h-96v-377z" />
<glyph unicode="&#xd1;" horiz-adv-x="847" d="M74 0v1434h131l344 -725v725h225v-1434h-131l-344 727v-727h-225zM152 1573l90 -68q42 60 77 66q31 8 80 -23q63 -43 123 -43q53 0 95 32t79 83l-92 66q-41 -55 -72 -66q-29 -6 -71 22q-68 43 -127 44q-14 0 -39 -5q-74 -18 -143 -108z" />
<glyph unicode="&#xd2;" horiz-adv-x="806" d="M63 336q0 -170 103 -268q90 -84 237 -84q148 0 238 84q102 98 102 268v762q0 170 -102 268q-90 84 -238 84q-147 0 -237 -84q-102 -98 -103 -268v-762zM123 1735l225 -226h113l-113 226h-225zM289 336v762q0 74 30 102q27 25 84 25q59 0 84 -25q31 -27 31 -102v-762 q0 -76 -31 -103q-25 -25 -84 -24q-57 0 -84 24q-31 29 -30 103z" />
<glyph unicode="&#xd3;" horiz-adv-x="806" d="M63 336q0 -170 103 -268q90 -84 237 -84q148 0 238 84q102 98 102 268v762q0 170 -102 268q-90 84 -238 84q-147 0 -237 -84q-102 -98 -103 -268v-762zM289 336v762q0 74 30 102q27 25 84 25q59 0 84 -25q31 -27 31 -102v-762q0 -76 -31 -103q-25 -25 -84 -24 q-57 0 -84 24q-31 29 -30 103zM346 1509h113l225 226h-225z" />
<glyph unicode="&#xd4;" horiz-adv-x="806" d="M63 336q0 -170 103 -268q90 -84 237 -84q148 0 238 84q102 98 102 268v762q0 170 -102 268q-90 84 -238 84q-147 0 -237 -84q-102 -98 -103 -268v-762zM121 1509l182 228h203l182 -228h-192l-93 113l-90 -113h-192zM289 336v762q0 74 30 102q27 25 84 25q59 0 84 -25 q31 -27 31 -102v-762q0 -76 -31 -103q-25 -25 -84 -24q-57 0 -84 24q-31 29 -30 103z" />
<glyph unicode="&#xd5;" horiz-adv-x="811" d="M63 344v746q0 172 88.5 266t254.5 94t254 -94t88 -266v-746q0 -172 -88.5 -266t-253.5 -94q-166 0 -254.5 94t-88.5 266zM133 1573l90 -68q43 60 78 66q31 8 80 -23q63 -43 123 -43q53 0 95 32t79 83l-92 66q-41 -55 -72 -66q-29 -6 -72 22q-68 43 -127 44q-14 0 -39 -5 q-74 -18 -143 -108zM289 330q0 -142 117 -142t116 142v774q0 141 -116 141q-117 0 -117 -141v-774z" />
<glyph unicode="&#xd6;" horiz-adv-x="806" d="M63 336q0 -170 103 -268q90 -84 237 -84q148 0 238 84q102 98 102 268v762q0 170 -102 268q-90 84 -238 84q-147 0 -237 -84q-102 -98 -103 -268v-762zM147 1608q0 -41 30 -71t71 -30t70.5 30t29.5 71q0 43 -29.5 72.5t-70.5 29.5t-71 -29.5t-30 -72.5zM289 336v762 q0 74 30 102q27 25 84 25q59 0 84 -25q31 -27 31 -102v-762q0 -76 -31 -103q-25 -25 -84 -24q-57 0 -84 24q-31 29 -30 103zM459 1608q0 -41 29.5 -71t70.5 -30t70.5 30t29.5 71q0 43 -29.5 72.5t-70.5 29.5t-70.5 -29.5t-29.5 -72.5z" />
<glyph unicode="&#xd7;" horiz-adv-x="768" d="M72 586l151 149l-151 152l161 162l152 -152l150 152l161 -162l-149 -152l149 -149l-161 -162l-150 151l-152 -151z" />
<glyph unicode="&#xd8;" horiz-adv-x="827" d="M23 0l79 174q-29 76 -28 160v762q0 170 102 268q90 84 238 84q152 0 235 -82l53 113l103 -45l-80 -177q29 -76 29 -161v-762q0 -170 -103 -268q-90 -84 -237 -84t-238 84l-51 -113zM299 332q0 -72 31 -101q27 -25 84 -24q59 0 84 24q31 27 30 103v495zM299 602l229 498 q0 74 -30 98q-25 25 -84 25q-57 0 -84 -25q-31 -29 -31 -102v-494z" />
<glyph unicode="&#xd9;" horiz-adv-x="823" d="M72 336q0 -170 102 -268q90 -84 238 -84q143 0 237 84q102 102 103 268v1098h-226v-1098q0 -74 -30 -103q-27 -25 -84 -24q-59 0 -86 24q-29 27 -29 103v1098h-225v-1098zM131 1735l225 -226h113l-113 226h-225z" />
<glyph unicode="&#xda;" horiz-adv-x="823" d="M72 336q0 -170 102 -268q90 -84 238 -84q143 0 237 84q102 102 103 268v1098h-226v-1098q0 -74 -30 -103q-27 -25 -84 -24q-59 0 -86 24q-29 27 -29 103v1098h-225v-1098zM354 1509h113l225 226h-225z" />
<glyph unicode="&#xdb;" horiz-adv-x="823" d="M72 336q0 -170 102 -268q90 -84 238 -84q143 0 237 84q102 102 103 268v1098h-226v-1098q0 -74 -30 -103q-27 -25 -84 -24q-59 0 -86 24q-29 27 -29 103v1098h-225v-1098zM184 1509l115 226h225l113 -226h-113l-112 113l-113 -113h-115z" />
<glyph unicode="&#xdc;" horiz-adv-x="823" d="M72 336q0 -170 102 -268q90 -84 238 -84q143 0 237 84q102 102 103 268v1098h-226v-1098q0 -74 -30 -103q-27 -25 -84 -24q-59 0 -86 24q-29 27 -29 103v1098h-225v-1098zM156 1608q0 -41 29.5 -71t70.5 -30t70.5 30t29.5 71q0 43 -29.5 72.5t-70.5 29.5t-70.5 -29.5 t-29.5 -72.5zM467 1608q0 -41 29.5 -71t70.5 -30t71 30t30 71q0 43 -30 72.5t-71 29.5t-70.5 -29.5t-29.5 -72.5z" />
<glyph unicode="&#xdd;" horiz-adv-x="802" d="M10 1434h238l151 -514l156 514h238l-279 -930v-504h-227v504zM303 1509h113l225 226h-225z" />
<glyph unicode="&#xe0;" d="M27 0l286 1434h226l286 -1434h-229l-41 227h-258l-41 -227h-229zM156 1735l225 -226h113l-113 226h-225zM336 453h180l-90 514z" />
<glyph unicode="&#xe1;" d="M27 0l286 1434h226l286 -1434h-229l-41 227h-258l-41 -227h-229zM336 453h180l-90 514zM379 1509h113l225 226h-225z" />
<glyph unicode="&#xe2;" d="M27 0l286 1434h226l286 -1434h-229l-41 227h-258l-41 -227h-229zM199 1509l114 226h226l112 -226h-112l-113 113l-113 -113h-114zM336 453h180l-90 514z" />
<glyph unicode="&#xe3;" d="M27 0l286 1434h226l286 -1434h-229l-41 227h-258l-41 -227h-229zM154 1573l90 -68q43 60 78 66q31 8 79 -23q63 -43 123 -43q53 0 95.5 32t78.5 83l-92 66q-41 -55 -71 -66q-29 -6 -72 22q-68 43 -127 44q-14 0 -39 -5q-74 -18 -143 -108zM336 453h180l-90 514z" />
<glyph unicode="&#xe4;" d="M27 0l286 1434h226l286 -1434h-229l-41 227h-258l-41 -227h-229zM170 1608q0 -41 29.5 -71t70.5 -30t71 30t30 71q0 43 -30 72.5t-71 29.5t-70.5 -29.5t-29.5 -72.5zM336 453h180l-90 514zM481 1608q0 -41 30 -71t71 -30t70.5 30t29.5 71q0 43 -29.5 72.5t-70.5 29.5 t-71 -29.5t-30 -72.5z" />
<glyph unicode="&#xe5;" d="M27 0l286 1434h226l286 -1434h-229l-41 227h-258l-41 -227h-229zM283 1657q0 -59 42 -100t101 -41t100 41.5t41 99.5q0 59 -41 101t-100 42t-101 -42t-42 -101zM336 453h180l-90 514zM395 1657q0 12 9.5 21.5t21.5 9.5t20.5 -9.5t8.5 -21.5t-8.5 -20.5t-20.5 -8.5 t-21.5 8.5t-9.5 20.5z" />
<glyph unicode="&#xe6;" horiz-adv-x="1177" d="M16 0l328 1434h776v-226h-368v-360h254v-225h-254v-398h368v-225h-594v225h-227l-51 -225h-232zM352 451h174v759z" />
<glyph unicode="&#xe7;" horiz-adv-x="798" d="M63 338v762q0 166 103 268q94 84 237 84q147 0 238 -84q102 -98 102 -268v-127h-225v127q0 76 -29 102q-27 25 -86 25q-57 0 -84 -25q-31 -29 -30 -102v-762q0 -74 30 -102q27 -25 84 -25q59 0 86 25q29 27 29 102v184h225v-184q0 -170 -102 -268q-70 -68 -184 -80v-2 q0 -8 10 -17q33 -23 53.5 -51.5t20.5 -77.5q0 -59 -41 -100t-101 -41q-57 0 -99 41t-42 100h113q0 -12 8 -20t20 -8t20.5 8t8.5 20t-5 18.5t-22 18.5q-57 41 -57 109v2q-104 14 -178 80q-102 102 -103 268z" />
<glyph unicode="&#xe8;" horiz-adv-x="733" d="M82 0v1434h594v-226h-369v-360h254v-225h-254v-398h369v-225h-594zM98 1735l226 -226h112l-112 226h-226z" />
<glyph unicode="&#xe9;" horiz-adv-x="733" d="M82 0v1434h594v-226h-369v-360h254v-225h-254v-398h369v-225h-594zM322 1509h112l225 226h-225z" />
<glyph unicode="&#xea;" horiz-adv-x="733" d="M82 0v1434h594v-226h-369v-360h254v-225h-254v-398h369v-225h-594zM164 1509l115 226h225l112 -226h-112l-113 113l-112 -113h-115z" />
<glyph unicode="&#xeb;" horiz-adv-x="733" d="M82 0v1434h594v-226h-369v-360h254v-225h-254v-398h369v-225h-594zM123 1608q0 -41 29.5 -71t70.5 -30t71 30t30 71q0 43 -30 72.5t-71 29.5t-70.5 -29.5t-29.5 -72.5zM434 1608q0 -41 30 -71t71 -30t70.5 30t29.5 71q0 43 -30 72.5t-70 29.5q-41 0 -71 -29.5t-30 -72.5z " />
<glyph unicode="&#xec;" horiz-adv-x="389" d="M-86 1735l225 -226h113l-113 226h-225zM82 0h225v1434h-225v-1434z" />
<glyph unicode="&#xed;" horiz-adv-x="389" d="M82 0h225v1434h-225v-1434zM137 1509h113l225 226h-225z" />
<glyph unicode="&#xee;" horiz-adv-x="387" d="M-33 1509l115 226h225l113 -226h-113l-112 113l-113 -113h-115zM82 0h225v1434h-225v-1434z" />
<glyph unicode="&#xef;" horiz-adv-x="389" d="M-61 1608q0 -41 29.5 -71t70.5 -30t70.5 30t29.5 71q0 43 -29.5 72.5t-70.5 29.5t-70.5 -29.5t-29.5 -72.5zM82 0h225v1434h-225v-1434zM250 1608q0 -41 29.5 -71t70.5 -30t71 30t30 71q0 43 -30 72.5t-71 29.5t-70.5 -29.5t-29.5 -72.5z" />
<glyph unicode="&#xf0;" horiz-adv-x="849" d="M12 602v225h94v607h340q145 0 238 -86q102 -95 102 -267v-737q0 -84 -24 -149q-29 -70 -80 -115q-88 -80 -236 -80h-340v602h-94zM332 225h114q61 0 86 23q29 25 29 96v737q0 72 -31 103q-27 25 -84 24h-114v-381h96v-225h-96v-377z" />
<glyph unicode="&#xf1;" horiz-adv-x="847" d="M74 0v1434h131l344 -725v725h225v-1434h-131l-344 727v-727h-225zM152 1573l90 -68q42 60 77 66q31 8 80 -23q63 -43 123 -43q53 0 95 32t79 83l-92 66q-41 -55 -72 -66q-29 -6 -71 22q-68 43 -127 44q-14 0 -39 -5q-74 -18 -143 -108z" />
<glyph unicode="&#xf2;" horiz-adv-x="806" d="M63 336q0 -170 103 -268q90 -84 237 -84q148 0 238 84q102 98 102 268v762q0 170 -102 268q-90 84 -238 84q-147 0 -237 -84q-102 -98 -103 -268v-762zM123 1735l225 -226h113l-113 226h-225zM289 336v762q0 74 30 102q27 25 84 25q59 0 84 -25q31 -27 31 -102v-762 q0 -76 -31 -103q-25 -25 -84 -24q-57 0 -84 24q-31 29 -30 103z" />
<glyph unicode="&#xf3;" horiz-adv-x="806" d="M63 336q0 -170 103 -268q90 -84 237 -84q148 0 238 84q102 98 102 268v762q0 170 -102 268q-90 84 -238 84q-147 0 -237 -84q-102 -98 -103 -268v-762zM289 336v762q0 74 30 102q27 25 84 25q59 0 84 -25q31 -27 31 -102v-762q0 -76 -31 -103q-25 -25 -84 -24 q-57 0 -84 24q-31 29 -30 103zM346 1509h113l225 226h-225z" />
<glyph unicode="&#xf4;" horiz-adv-x="806" d="M63 336q0 -170 103 -268q90 -84 237 -84q148 0 238 84q102 98 102 268v762q0 170 -102 268q-90 84 -238 84q-147 0 -237 -84q-102 -98 -103 -268v-762zM121 1509l182 228h203l182 -228h-192l-93 113l-90 -113h-192zM289 336v762q0 74 30 102q27 25 84 25q59 0 84 -25 q31 -27 31 -102v-762q0 -76 -31 -103q-25 -25 -84 -24q-57 0 -84 24q-31 29 -30 103z" />
<glyph unicode="&#xf5;" horiz-adv-x="811" d="M63 344v746q0 172 88.5 266t254.5 94t254 -94t88 -266v-746q0 -172 -88.5 -266t-253.5 -94q-166 0 -254.5 94t-88.5 266zM133 1573l90 -68q43 60 78 66q31 8 80 -23q63 -43 123 -43q53 0 95 32t79 83l-92 66q-41 -55 -72 -66q-29 -6 -72 22q-68 43 -127 44q-14 0 -39 -5 q-74 -18 -143 -108zM289 330q0 -142 117 -142t116 142v774q0 141 -116 141q-117 0 -117 -141v-774z" />
<glyph unicode="&#xf6;" horiz-adv-x="806" d="M63 336q0 -170 103 -268q90 -84 237 -84q148 0 238 84q102 98 102 268v762q0 170 -102 268q-90 84 -238 84q-147 0 -237 -84q-102 -98 -103 -268v-762zM147 1608q0 -41 30 -71t71 -30t70.5 30t29.5 71q0 43 -29.5 72.5t-70.5 29.5t-71 -29.5t-30 -72.5zM289 336v762 q0 74 30 102q27 25 84 25q59 0 84 -25q31 -27 31 -102v-762q0 -76 -31 -103q-25 -25 -84 -24q-57 0 -84 24q-31 29 -30 103zM459 1608q0 -41 29.5 -71t70.5 -30t70.5 30t29.5 71q0 43 -29.5 72.5t-70.5 29.5t-70.5 -29.5t-29.5 -72.5z" />
<glyph unicode="&#xf7;" horiz-adv-x="737" d="M72 621h594v227h-594v-227zM254 453q0 -47 34 -81t81 -34t80.5 34t33.5 81t-33.5 80.5t-80.5 33.5t-81 -33.5t-34 -80.5zM254 1016q0 -47 34 -81t81 -34t80.5 34t33.5 81t-33.5 80.5t-80.5 33.5t-81 -33.5t-34 -80.5z" />
<glyph unicode="&#xf8;" horiz-adv-x="909" d="M63 0l80 174q-29 76 -28 160v762q0 170 102 268q90 84 238 84q152 0 235 -82l53 113l103 -45l-80 -177q29 -76 29 -161v-762q0 -170 -103 -268q-90 -84 -237 -84t-238 84l-51 -113zM340 332q0 -72 31 -101q27 -25 84 -24q59 0 84 24q31 27 30 103v495zM340 602l229 498 q0 74 -30 98q-25 25 -84 25q-57 0 -84 -25q-31 -29 -31 -102v-494z" />
<glyph unicode="&#xf9;" horiz-adv-x="823" d="M72 336q0 -170 102 -268q90 -84 238 -84q143 0 237 84q102 102 103 268v1098h-226v-1098q0 -74 -30 -103q-27 -25 -84 -24q-59 0 -86 24q-29 27 -29 103v1098h-225v-1098zM131 1735l225 -226h113l-113 226h-225z" />
<glyph unicode="&#xfa;" horiz-adv-x="823" d="M72 336q0 -170 102 -268q90 -84 238 -84q143 0 237 84q102 102 103 268v1098h-226v-1098q0 -74 -30 -103q-27 -25 -84 -24q-59 0 -86 24q-29 27 -29 103v1098h-225v-1098zM354 1509h113l225 226h-225z" />
<glyph unicode="&#xfb;" horiz-adv-x="823" d="M72 336q0 -170 102 -268q90 -84 238 -84q143 0 237 84q102 102 103 268v1098h-226v-1098q0 -74 -30 -103q-27 -25 -84 -24q-59 0 -86 24q-29 27 -29 103v1098h-225v-1098zM184 1509l115 226h225l113 -226h-113l-112 113l-113 -113h-115z" />
<glyph unicode="&#xfc;" horiz-adv-x="823" d="M72 336q0 -170 102 -268q90 -84 238 -84q143 0 237 84q102 102 103 268v1098h-226v-1098q0 -74 -30 -103q-27 -25 -84 -24q-59 0 -86 24q-29 27 -29 103v1098h-225v-1098zM156 1608q0 -41 29.5 -71t70.5 -30t70.5 30t29.5 71q0 43 -29.5 72.5t-70.5 29.5t-70.5 -29.5 t-29.5 -72.5zM467 1608q0 -41 29.5 -71t70.5 -30t71 30t30 71q0 43 -30 72.5t-71 29.5t-70.5 -29.5t-29.5 -72.5z" />
<glyph unicode="&#xfd;" horiz-adv-x="802" d="M10 1434h238l151 -514l156 514h238l-279 -930v-504h-227v504zM303 1509h113l225 226h-225z" />
<glyph unicode="&#xff;" horiz-adv-x="802" d="M10 1434h238l151 -514l156 514h238l-279 -930v-504h-227v504zM145 1608q0 -41 30 -71t71 -30t70.5 30t29.5 71q0 43 -29.5 72.5t-70.5 29.5t-71 -29.5t-30 -72.5zM457 1608q0 -41 29.5 -71t70.5 -30t70.5 30t29.5 71q0 43 -29.5 72.5t-70.5 29.5t-70.5 -29.5t-29.5 -72.5 z" />
<glyph unicode="&#x152;" horiz-adv-x="1171" d="M63 352v729q0 172 103 267q96 86 237 86h711v-226h-369v-360h254v-225h-254v-398h369v-225h-711q-143 0 -237 84q-102 98 -103 268zM289 352q0 -74 30 -102q27 -25 84 -25h115v983h-115q-57 0 -84 -24q-31 -31 -30 -103v-729z" />
<glyph unicode="&#x153;" horiz-adv-x="1171" d="M63 352v729q0 172 103 267q96 86 237 86h711v-226h-369v-360h254v-225h-254v-398h369v-225h-711q-143 0 -237 84q-102 98 -103 268zM289 352q0 -74 30 -102q27 -25 84 -25h115v983h-115q-57 0 -84 -24q-31 -31 -30 -103v-729z" />
<glyph unicode="&#x178;" horiz-adv-x="802" d="M10 1434h238l151 -514l156 514h238l-279 -930v-504h-227v504zM145 1608q0 -41 30 -71t71 -30t70.5 30t29.5 71q0 43 -29.5 72.5t-70.5 29.5t-71 -29.5t-30 -72.5zM457 1608q0 -41 29.5 -71t70.5 -30t70.5 30t29.5 71q0 43 -29.5 72.5t-70.5 29.5t-70.5 -29.5t-29.5 -72.5 z" />
<glyph unicode="&#x2c6;" horiz-adv-x="493" d="M20 1509l115 226h225l113 -226h-113l-112 113l-113 -113h-115z" />
<glyph unicode="&#x2dc;" horiz-adv-x="595" d="M20 1577q51 139 175 139q31 0 54 -7t54 -21q45 -23 76 -23t51.5 12.5t36.5 46.5l108 -75q-51 -139 -174 -140q-31 0 -54 7.5t-54 21.5q-45 23 -76 23t-51.5 -12.5t-36.5 -47.5z" />
<glyph unicode="&#x2000;" horiz-adv-x="900" />
<glyph unicode="&#x2001;" horiz-adv-x="1800" />
<glyph unicode="&#x2002;" horiz-adv-x="900" />
<glyph unicode="&#x2003;" horiz-adv-x="1800" />
<glyph unicode="&#x2004;" horiz-adv-x="600" />
<glyph unicode="&#x2005;" horiz-adv-x="450" />
<glyph unicode="&#x2006;" horiz-adv-x="300" />
<glyph unicode="&#x2007;" horiz-adv-x="300" />
<glyph unicode="&#x2008;" horiz-adv-x="225" />
<glyph unicode="&#x2009;" horiz-adv-x="360" />
<glyph unicode="&#x200a;" horiz-adv-x="100" />
<glyph unicode="&#x2010;" horiz-adv-x="409" d="M20 623v225h369v-225h-369z" />
<glyph unicode="&#x2011;" horiz-adv-x="409" d="M20 623v225h369v-225h-369z" />
<glyph unicode="&#x2012;" horiz-adv-x="409" d="M20 623v225h369v-225h-369z" />
<glyph unicode="&#x2013;" horiz-adv-x="1228" d="M20 623v225h1188v-225h-1188z" />
<glyph unicode="&#x2014;" horiz-adv-x="1228" d="M20 623v225h1188v-225h-1188z" />
<glyph unicode="&#x2018;" horiz-adv-x="393" d="M82 1145q0 45 33 106q23 43 62.5 103.5t53.5 79.5h66q-4 -12 -17.5 -48t-29.5 -75q-6 -12 -6 -31q0 -20 16 -37q51 -41 51 -98q0 -47 -33.5 -81t-80.5 -34t-81 34t-34 81z" />
<glyph unicode="&#x2019;" horiz-adv-x="393" d="M82 1325q0 47 34 81t81 34t80.5 -34t33.5 -81q0 -45 -32 -106q-23 -43 -63 -103.5t-54 -79.5h-66q4 12 17.5 48t29.5 75q6 12 7 31q0 20 -17 37q-51 41 -51 98z" />
<glyph unicode="&#x201a;" horiz-adv-x="372" d="M72 109q0 47 33.5 80.5t80.5 33.5t81 -33.5t34 -80.5q0 -45 -33 -107q-23 -43 -62.5 -103.5t-53.5 -78.5h-66q4 12 17.5 48t29.5 75q6 12 6 30q0 20 -16 37q-51 41 -51 99z" />
<glyph unicode="&#x201c;" horiz-adv-x="681" d="M72 1145q0 45 32 106q23 43 63 103.5t54 79.5h66q-4 -12 -17.5 -48t-29.5 -75q-6 -12 -7 -31q0 -20 17 -37q51 -41 51 -98q0 -47 -34 -81t-81 -34t-80.5 34t-33.5 81zM371 1145q0 45 32 106q23 43 63 103.5t54 79.5h66q-4 -12 -17.5 -48t-29.5 -75q-6 -12 -7 -31 q0 -20 17 -37q51 -41 51 -98q0 -47 -34 -81t-81 -34t-80.5 34t-33.5 81z" />
<glyph unicode="&#x201d;" horiz-adv-x="681" d="M82 1325q0 47 34 81t81 34t80.5 -34t33.5 -81q0 -45 -32 -106q-23 -43 -63 -103.5t-54 -79.5h-66q4 12 17.5 48t29.5 75q6 12 7 31q0 20 -17 37q-51 41 -51 98zM381 1325q0 47 34 81t81 34t80.5 -34t33.5 -81q0 -45 -32 -106q-23 -43 -63 -103.5t-54 -79.5h-66 q4 12 17.5 48t29.5 75q6 12 7 31q0 20 -17 37q-51 41 -51 98z" />
<glyph unicode="&#x201e;" horiz-adv-x="671" d="M72 109q0 47 33.5 80.5t80.5 33.5t81 -33.5t34 -80.5q0 -45 -33 -107q-23 -43 -62.5 -103.5t-53.5 -78.5h-66q4 12 17.5 48t29.5 75q6 12 6 30q0 20 -16 37q-51 41 -51 99zM371 109q0 47 33.5 80.5t80.5 33.5t81 -33.5t34 -80.5q0 -45 -33 -107q-23 -43 -62.5 -103.5 t-53.5 -78.5h-66q4 12 17.5 48t29.5 75q6 12 6 30q0 20 -16 37q-51 41 -51 99z" />
<glyph unicode="&#x2022;" horiz-adv-x="774" d="M102 717q0 78 38 143.5t103.5 103t143.5 37.5t143.5 -37.5t103.5 -103t38 -143.5t-38 -143.5t-103.5 -103.5t-143.5 -38t-143.5 38t-103.5 103.5t-38 143.5z" />
<glyph unicode="&#x2026;" horiz-adv-x="1011" d="M72 109q0 -47 33.5 -81t80.5 -34t81 33.5t34 81.5q0 47 -34 80.5t-81 33.5t-80.5 -33.5t-33.5 -80.5zM391 109q0 -47 34 -81t81 -34t81 33.5t34 81.5q0 47 -34 80.5t-81 33.5t-81 -33.5t-34 -80.5zM711 109q0 -47 33.5 -81t80.5 -34t81 33.5t34 81.5q0 47 -34 80.5 t-81 33.5t-80.5 -33.5t-33.5 -80.5z" />
<glyph unicode="&#x202f;" horiz-adv-x="360" />
<glyph unicode="&#x2039;" horiz-adv-x="417" d="M33 735l121 547h231l-123 -547l123 -547h-231z" />
<glyph unicode="&#x203a;" horiz-adv-x="417" d="M33 188l123 547l-123 547h231l121 -547l-121 -547h-231z" />
<glyph unicode="&#x205f;" horiz-adv-x="450" />
<glyph unicode="&#x20ac;" horiz-adv-x="811" d="M57 469v227h97v62h-97v227h101q23 209 121 330q57 72 138 109.5t175 37.5q78 0 143 -26l-80 -213q-23 10 -63 10q-70 0 -128 -53.5t-77 -194.5h268v-227h-272v-62h272v-227h-268q14 -150 74.5 -205t130.5 -55q37 0 74 16l94 -209q-82 -35 -168 -34q-94 0 -175 37.5 t-138 109.5q-102 123 -121 340h-101z" />
<glyph unicode="&#x25fc;" horiz-adv-x="1433" d="M0 0v1434h1434v-1434h-1434z" />
</font>
</defs>
</svg>
